# xmcd
#
# Track frame offsets:
#	150
#	19173
#	43028
#	61052
#	77502
#	95774
#	118961
#	134643
#	151706
#	173121
#	190524
#	212752
#	233163
#	252658
#	268872
#	288709
#	308252
#	328987
#
# Disc length: 4615 seconds
# Revision: 1
# Processed by: cddbd v1.5.2PL0 Copyright (c) Steve Scherf et al.
# Submitted via: dBpowerAMP V12.0
#
DISCID=04120512
DTITLE=Johnnie Taylor - Rated Extraordinaire and Ever Ready
DYEAR=2012
DGENRE=Soul
TTITLE0=Your Love is Rated X
TTITLE1=Stormy
TTITLE2=Here I go (Through These Changes Again)
TTITLE3=Did he Make Love to You
TTITLE4=And I Panicked
TTITLE5=Love is Better in The A.M. (Part 1 and 2)
TTITLE6=It Ain't What You do (It's How You do It)
TTITLE7=Not Just Another Booty Song
TTITLE8=I'm Just a Shoulder to Cry on
TTITLE9=Stop Giving People Hard Luck Stories
TTITLE10=Hey Mister Melody Maker
TTITLE11=Ever Ready
TTITLE12=Keep on Dancing
TTITLE13=I Gotta Keep Groovin' You
TTITLE14=Soul Fillet
TTITLE15=Bittersweet Love
TTITLE16=I Love to Make Love When It's Raining
TTITLE17=Give me my Baby
EXTD=
EXTT0=
EXTT1=
EXTT2=
EXTT3=
EXTT4=
EXTT5=
EXTT6=
EXTT7=
EXTT8=
EXTT9=
EXTT10=
EXTT11=
EXTT12=
EXTT13=
EXTT14=
EXTT15=
EXTT16=
EXTT17=
PLAYORDER=
